# xmcd
#
# Track frame offsets:
#	150
#	16965
#	33907
#	49797
#	80545
#	102217
#	118902
#	136047
#	166652
#	196847
#	216242
#	230970
#	257267
#	273090
#	297400
#
# Disc length: 4179
#
# Revision: 1
# Processed by: cddbd v1.5.1PL0 Copyright (c) Steve Scherf et al.
# Submitted via: CDex 1.50beta10
# Normalized: r0:DSETVAR1,TDELIM( - )
#
DISCID=ca10510f
DTITLE=Various Artist - Fifa 2000
DYEAR=1999
DGENRE=New Age
TTITLE0=Robbie Williams - Let me entertain you
TTITLE1=Reel Big Fish - Sell out
TTITLE2=Apollo 440 - stop the rock
TTITLE3=Lunatic Calm - LC001 (neon ray mix)
TTITLE4=Merz - Many Weathers apart
TTITLE5=Black stat liner - Superfly and lindi
TTITLE6=Domination - way out west
TTITLE7=Elite forces - call it brisco (and why not ?)
TTITLE8=Junior Blanks - All about beats (DJ scissorkicks remix)
TTITLE9=Underworld - born slippy
TTITLE10=Mauro picotto - Lizard
TTITLE11=Sniper - crossfader dominator
TTITLE12=Cassius - cassius 1999
TTITLE13=The jungle brothers - VIP
TTITLE14=Jamiroquai - Deeper underground
EXTD=YEAR: 1999
EXTT0=
EXTT1=
EXTT2=
EXTT3=
EXTT4=
EXTT5=
EXTT6=
EXTT7=
EXTT8=
EXTT9=
EXTT10=
EXTT11=
EXTT12=
EXTT13=
EXTT14=
PLAYORDER=
